<svg width="323" height="26" viewBox="0 0 323 26" fill="none" xmlns="http://www.w3.org/2000/svg">
<g clip-path="url(#clip0_865_9507)">
<g opacity="0.3">
<path d="M3.53906 4.3457H20.9475V21.5387" stroke="black" stroke-miterlimit="10"/>
<path d="M20.8315 4.45605L3.64844 21.4265" stroke="black" stroke-miterlimit="10"/>
</g>
<g opacity="0.3">
<path d="M40.5391 4.3457H57.9475V21.5387" stroke="black" stroke-miterlimit="10"/>
<path d="M57.8315 4.45605L40.6484 21.4265" stroke="black" stroke-miterlimit="10"/>
</g>
<g opacity="0.3">
<path d="M77.5391 4.3457H94.9475V21.5387" stroke="black" stroke-miterlimit="10"/>
<path d="M94.8315 4.45605L77.6484 21.4265" stroke="black" stroke-miterlimit="10"/>
</g>
<g opacity="0.3">
<path d="M114.539 4.3457H131.948V21.5387" stroke="black" stroke-miterlimit="10"/>
<path d="M131.832 4.45605L114.648 21.4265" stroke="black" stroke-miterlimit="10"/>
</g>
<g opacity="0.3">
<path d="M151.539 4.3457H168.948V21.5387" stroke="black" stroke-miterlimit="10"/>
<path d="M168.832 4.45605L151.648 21.4265" stroke="black" stroke-miterlimit="10"/>
</g>
<g opacity="0.3">
<path d="M188.539 4.3457H205.948V21.5387" stroke="black" stroke-miterlimit="10"/>
<path d="M205.832 4.45605L188.648 21.4265" stroke="black" stroke-miterlimit="10"/>
</g>
<g opacity="0.3">
<path d="M225.68 3.9082H243.784V22.0093" stroke="black" stroke-miterlimit="10"/>
<path d="M243.667 4.02344L225.797 21.8902" stroke="black" stroke-miterlimit="10"/>
</g>
<g opacity="0.3">
<path d="M263.68 3.9082H281.784V22.0093" stroke="black" stroke-miterlimit="10"/>
<path d="M281.667 4.02344L263.797 21.8902" stroke="black" stroke-miterlimit="10"/>
</g>
<path d="M301.539 4.3457H318.948V21.5387" stroke="#FD4338" stroke-miterlimit="10"/>
<path d="M318.832 4.45605L301.648 21.4265" stroke="#FD4338" stroke-miterlimit="10"/>
</g>
<defs>
<clipPath id="clip0_865_9507">
<rect width="323" height="25.2676" fill="white"/>
</clipPath>
</defs>
</svg>
