<svg version="1.2" xmlns="http://www.w3.org/2000/svg" viewBox="0 0 340 26" width="340" height="26">
	<defs>
		<clipPath clipPathUnits="userSpaceOnUse" id="cp1">
			<path d="m8 0h323v25.27h-323z"/>
		</clipPath>
	</defs>
	<style>
		.s0 { fill: none;stroke: #000000;stroke-miterlimit:10 } 
		.s1 { fill: none;stroke: #fd4338;stroke-miterlimit:10 } 
	</style>
	<g id="Clip-Path" clip-path="url(#cp1)">
		<g>
			<g style="opacity: .3">
				<path class="s0" d="m11.54 4.35h17.41v17.19"/>
				<path class="s0" d="m28.83 4.46l-17.18 16.97"/>
			</g>
			<g style="opacity: .3">
				<path class="s0" d="m48.54 4.35h17.41v17.19"/>
				<path class="s0" d="m65.83 4.46l-17.18 16.97"/>
			</g>
			<g style="opacity: .3">
				<path class="s0" d="m85.54 4.35h17.41v17.19"/>
				<path class="s0" d="m102.83 4.46l-17.18 16.97"/>
			</g>
			<g style="opacity: .3">
				<path class="s0" d="m122.54 4.35h17.41v17.19"/>
				<path class="s0" d="m139.83 4.46l-17.18 16.97"/>
			</g>
			<g style="opacity: .3">
				<path class="s0" d="m159.54 4.35h17.41v17.19"/>
				<path class="s0" d="m176.83 4.46l-17.18 16.97"/>
			</g>
			<g style="opacity: .3">
				<path class="s0" d="m196.54 4.35h17.41v17.19"/>
				<path class="s0" d="m213.83 4.46l-17.18 16.97"/>
			</g>
			<g style="opacity: .3">
				<path class="s0" d="m233.68 3.91h18.1v18.1"/>
				<path class="s0" d="m251.67 4.02l-17.87 17.87"/>
			</g>
			<g style="opacity: .3">
				<path class="s0" d="m271.68 3.91h18.1v18.1"/>
				<path class="s0" d="m289.67 4.02l-17.87 17.87"/>
			</g>
			<path class="s1" d="m309.54 4.35h17.41v17.19"/>
			<path class="s1" d="m326.83 4.46l-17.18 16.97"/>
		</g>
	</g>
</svg>