<svg width="14" height="14" viewBox="0 0 14 14" fill="none" xmlns="http://www.w3.org/2000/svg">
<path d="M4.77583 9.55C3.44361 9.55 2.31444 9.08722 1.38833 8.16167C0.462778 7.23667 0 6.10778 0 4.775C0 3.44222 0.462778 2.31306 1.38833 1.3875C2.31389 0.461945 3.44306 -0.000555056 4.77583 4.999e-07C6.10861 0.000556055 7.2375 0.463334 8.1625 1.38833C9.0875 2.31333 9.55028 3.44222 9.55083 4.775C9.55083 5.35389 9.44833 5.91417 9.24333 6.45583C9.03833 6.9975 8.76889 7.46083 8.435 7.84583L13.3592 12.7683C13.4369 12.8461 13.4786 12.9419 13.4842 13.0558C13.4892 13.1686 13.4475 13.2694 13.3592 13.3583C13.2703 13.4472 13.1719 13.4917 13.0642 13.4917C12.9564 13.4917 12.8581 13.4472 12.7692 13.3583L7.84583 8.435C7.42917 8.79 6.95 9.06472 6.40833 9.25917C5.86667 9.45361 5.32222 9.55083 4.775 9.55083M4.775 8.7175C5.88056 8.7175 6.81417 8.33694 7.57583 7.57583C8.33694 6.81472 8.7175 5.88111 8.7175 4.775C8.7175 3.66889 8.33722 2.73556 7.57667 1.975C6.81611 1.21444 5.88278 0.833889 4.77667 0.833334C3.67056 0.833334 2.73694 1.21389 1.97583 1.975C1.21472 2.73611 0.833889 3.66944 0.833333 4.775C0.832778 5.88056 1.21333 6.81389 1.975 7.575C2.73667 8.33611 3.67 8.71667 4.775 8.71667" fill="white"/>
</svg>
