<svg version="1.2" xmlns="http://www.w3.org/2000/svg" viewBox="0 0 1018 78" width="1018" height="78">
	<defs>
		<clipPath clipPathUnits="userSpaceOnUse" id="cp1">
			<path d="m-6 0h1089v78h-1089z"/>
		</clipPath>
	</defs>
	<style>
		.s0 { fill: none;stroke: #000000;stroke-miterlimit:10;stroke-width: 2 } 
		.s1 { fill: none;stroke: #fd4338;stroke-miterlimit:10;stroke-width: 2 } 
	</style>
	<g id="Clip-Path" clip-path="url(#cp1)">
		<g>
			<g style="opacity: .3">
				<path class="s0" d="m4.19 14.83h50.14v50.14"/>
				<path class="s0" d="m54 15.15l-49.48 49.49"/>
			</g>
			<g style="opacity: .3">
				<path class="s0" d="m88.19 14.83h50.14v50.14"/>
				<path class="s0" d="m138 15.15l-49.48 49.49"/>
			</g>
			<g style="opacity: .3">
				<path class="s0" d="m172.19 14.83h50.14v50.14"/>
				<path class="s0" d="m222 15.15l-49.48 49.49"/>
			</g>
			<g style="opacity: .3">
				<path class="s0" d="m256.19 14.83h50.14v50.14"/>
				<path class="s0" d="m306 15.15l-49.48 49.49"/>
			</g>
			<g style="opacity: .3">
				<path class="s0" d="m340.19 14.83h50.14v50.14"/>
				<path class="s0" d="m390 15.15l-49.48 49.49"/>
			</g>
			<g style="opacity: .3">
				<path class="s0" d="m424.19 14.83h50.14v50.14"/>
				<path class="s0" d="m474 15.15l-49.48 49.49"/>
			</g>
			<g style="opacity: .3">
				<path class="s0" d="m508.19 14.83h50.14v50.14"/>
				<path class="s0" d="m558 15.15l-49.48 49.49"/>
			</g>
			<g style="opacity: .3">
				<path class="s0" d="m592.19 14.83h50.14v50.14"/>
				<path class="s0" d="m642 15.15l-49.48 49.49"/>
			</g>
			<g style="opacity: .3">
				<path class="s0" d="m676.19 14.83h50.14v50.14"/>
				<path class="s0" d="m726 15.15l-49.48 49.49"/>
			</g>
			<g style="opacity: .3">
				<path class="s0" d="m760.19 14.83h50.14v50.14"/>
				<path class="s0" d="m810 15.15l-49.48 49.49"/>
			</g>
			<g style="opacity: .3">
				<path class="s0" d="m844.19 14.83h50.14v50.14"/>
				<path class="s0" d="m894 15.15l-49.48 49.49"/>
			</g>
			<path class="s1" d="m929.47 12.06h56.4v55.88"/>
			<path class="s1" d="m985.5 12.42l-55.67 55.16"/>
		</g>
	</g>
</svg>