<svg width="18" height="18" viewBox="0 0 18 18" fill="none" xmlns="http://www.w3.org/2000/svg">
<path d="M17.25 8.625C17.25 8.72446 17.2105 8.81984 17.1402 8.89017C17.0698 8.96049 16.9745 9 16.875 9H9V16.875C9 16.9745 8.96049 17.0698 8.89017 17.1402C8.81984 17.2105 8.72446 17.25 8.625 17.25C8.52554 17.25 8.43016 17.2105 8.35983 17.1402C8.28951 17.0698 8.25 16.9745 8.25 16.875V9H0.375C0.275544 9 0.180161 8.96049 0.109835 8.89017C0.0395089 8.81984 0 8.72446 0 8.625C0 8.52554 0.0395089 8.43016 0.109835 8.35983C0.180161 8.28951 0.275544 8.25 0.375 8.25H8.25V0.375C8.25 0.275544 8.28951 0.180161 8.35983 0.109835C8.43016 0.0395089 8.52554 0 8.625 0C8.72446 0 8.81984 0.0395089 8.89017 0.109835C8.96049 0.180161 9 0.275544 9 0.375V8.25H16.875C16.9745 8.25 17.0698 8.28951 17.1402 8.35983C17.2105 8.43016 17.25 8.52554 17.25 8.625Z" fill="white"/>
</svg>
