<svg width="15" height="15" viewBox="0 0 15 15" fill="none" xmlns="http://www.w3.org/2000/svg">
<path d="M14.375 7.1875C14.375 7.27038 14.3421 7.34987 14.2835 7.40847C14.2249 7.46708 14.1454 7.5 14.0625 7.5H7.5V14.0625C7.5 14.1454 7.46708 14.2249 7.40847 14.2835C7.34987 14.3421 7.27038 14.375 7.1875 14.375C7.10462 14.375 7.02513 14.3421 6.96653 14.2835C6.90792 14.2249 6.875 14.1454 6.875 14.0625V7.5H0.3125C0.22962 7.5 0.150134 7.46708 0.0915292 7.40847C0.0329241 7.34987 0 7.27038 0 7.1875C0 7.10462 0.0329241 7.02513 0.0915292 6.96653C0.150134 6.90792 0.22962 6.875 0.3125 6.875H6.875V0.3125C6.875 0.22962 6.90792 0.150134 6.96653 0.0915292C7.02513 0.0329241 7.10462 0 7.1875 0C7.27038 0 7.34987 0.0329241 7.40847 0.0915292C7.46708 0.150134 7.5 0.22962 7.5 0.3125V6.875H14.0625C14.1454 6.875 14.2249 6.90792 14.2835 6.96653C14.3421 7.02513 14.375 7.10462 14.375 7.1875Z" fill="black"/>
</svg>
