<svg width="1394" height="125" viewBox="0 0 1394 125" fill="none" xmlns="http://www.w3.org/2000/svg">
<g opacity="0.3">
<path d="M18.1182 19.333H107.249V108.88" stroke="black" stroke-opacity="0.3" stroke-width="2" stroke-miterlimit="10"/>
<path d="M106.673 19.9062L18.6953 108.294" stroke="black" stroke-opacity="0.3" stroke-width="2" stroke-miterlimit="10"/>
</g>
<g opacity="0.3">
<path d="M158.259 19.333H248.087V108.88" stroke="black" stroke-opacity="0.3" stroke-width="2" stroke-miterlimit="10"/>
<path d="M247.506 19.9062L158.841 108.294" stroke="black" stroke-opacity="0.3" stroke-width="2" stroke-miterlimit="10"/>
</g>
<g opacity="0.3">
<path d="M299.259 19.333H389.087V108.88" stroke="black" stroke-opacity="0.3" stroke-width="2" stroke-miterlimit="10"/>
<path d="M388.506 19.9062L299.841 108.294" stroke="black" stroke-opacity="0.3" stroke-width="2" stroke-miterlimit="10"/>
</g>
<g opacity="0.3">
<path d="M440.259 19.333H530.087V108.88" stroke="black" stroke-opacity="0.3" stroke-width="2" stroke-miterlimit="10"/>
<path d="M529.506 19.9062L440.841 108.294" stroke="black" stroke-opacity="0.3" stroke-width="2" stroke-miterlimit="10"/>
</g>
<g opacity="0.3">
<path d="M581.259 19.333H671.087V108.88" stroke="black" stroke-opacity="0.3" stroke-width="2" stroke-miterlimit="10"/>
<path d="M670.506 19.9062L581.841 108.294" stroke="black" stroke-opacity="0.3" stroke-width="2" stroke-miterlimit="10"/>
</g>
<g opacity="0.3">
<path d="M722.259 19.333H812.087V108.88" stroke="black" stroke-opacity="0.3" stroke-width="2" stroke-miterlimit="10"/>
<path d="M811.506 19.9062L722.841 108.294" stroke="black" stroke-opacity="0.3" stroke-width="2" stroke-miterlimit="10"/>
</g>
<g opacity="0.3">
<path d="M863.118 19.333H952.249V108.88" stroke="black" stroke-opacity="0.3" stroke-width="2" stroke-miterlimit="10"/>
<path d="M951.673 19.9062L863.695 108.294" stroke="black" stroke-opacity="0.3" stroke-width="2" stroke-miterlimit="10"/>
</g>
<g opacity="0.3">
<path d="M1003.12 19.333H1092.25V108.88" stroke="black" stroke-opacity="0.3" stroke-width="2" stroke-miterlimit="10"/>
<path d="M1091.67 19.9062L1003.7 108.294" stroke="black" stroke-opacity="0.3" stroke-width="2" stroke-miterlimit="10"/>
</g>
<g opacity="0.3">
<path d="M1143.12 19.333H1232.25V108.88" stroke="black" stroke-opacity="0.3" stroke-width="2" stroke-miterlimit="10"/>
<path d="M1231.67 19.9062L1143.7 108.294" stroke="black" stroke-opacity="0.3" stroke-width="2" stroke-miterlimit="10"/>
</g>
<path d="M1283.26 19.333H1373.09V108.88" stroke="#FD4338" stroke-width="2" stroke-miterlimit="10"/>
<path d="M1372.51 19.9062L1283.84 108.294" stroke="#FD4338" stroke-width="2" stroke-miterlimit="10"/>
</svg>
